<?xml version="1.0" encoding="UTF-8"?>
<svg xmlns="http://www.w3.org/2000/svg" xmlns:xlink="http://www.w3.org/1999/xlink" width="10pt" height="8pt" viewBox="0 0 10 8" version="1.1">
<g id="surface1">
<path fill="#a3bbc8" d="M 6.03125 3.570312 C 6.0625 3.722656 6.082031 3.875 6.082031 4.070312 C 6.082031 5.785156 4.929688 7 3.199219 7 C 1.542969 7 0.199219 5.65625 0.199219 4 C 0.199219 2.34375 1.542969 1 3.199219 1 C 4.007812 1 4.6875 1.296875 5.210938 1.785156 L 4.394531 2.570312 C 4.171875 2.355469 3.785156 2.105469 3.199219 2.105469 C 2.179688 2.105469 1.34375 2.953125 1.34375 4 C 1.34375 5.046875 2.179688 5.894531 3.199219 5.894531 C 4.386719 5.894531 4.835938 5.039062 4.902344 4.601562 L 3.199219 4.601562 L 3.199219 3.570312 Z M 8.929688 3.671875 L 8.929688 2.800781 L 8.054688 2.800781 L 8.054688 3.671875 L 7.183594 3.671875 L 7.183594 4.546875 L 8.054688 4.546875 L 8.054688 5.414062 L 8.929688 5.414062 L 8.929688 4.546875 L 9.800781 4.546875 L 9.800781 3.671875 Z M 8.929688 3.671875 "/>
</g>
</svg>
