<?xml version="1.0" encoding="UTF-8"?>
<svg xmlns="http://www.w3.org/2000/svg" xmlns:xlink="http://www.w3.org/1999/xlink" width="7pt" height="7pt" viewBox="0 0 7 7" version="1.1">
<g>
<path fill="#a3bbc8" d="M 3.40625 1.929688 C 2.4375 1.929688 1.660156 2.628906 1.660156 3.5 C 1.660156 4.367188 2.4375 5.070312 3.40625 5.070312 C 4.371094 5.070312 5.148438 4.367188 5.148438 3.5 C 5.148438 2.628906 4.371094 1.929688 3.40625 1.929688 Z M 3.40625 4.519531 C 2.78125 4.519531 2.269531 4.0625 2.269531 3.5 C 2.269531 2.9375 2.777344 2.476562 3.40625 2.476562 C 4.03125 2.476562 4.539062 2.9375 4.539062 3.5 C 4.539062 4.0625 4.03125 4.519531 3.40625 4.519531 Z M 5.628906 1.863281 C 5.628906 2.066406 5.445312 2.230469 5.222656 2.230469 C 4.992188 2.230469 4.8125 2.066406 4.8125 1.863281 C 4.8125 1.660156 4.996094 1.496094 5.222656 1.496094 C 5.445312 1.496094 5.628906 1.660156 5.628906 1.863281 Z M 6.785156 2.234375 C 6.757812 1.746094 6.632812 1.308594 6.234375 0.953125 C 5.835938 0.59375 5.351562 0.480469 4.808594 0.457031 C 4.246094 0.425781 2.5625 0.425781 2 0.457031 C 1.453125 0.480469 0.972656 0.589844 0.574219 0.949219 C 0.171875 1.308594 0.0507812 1.742188 0.0234375 2.234375 C -0.0078125 2.738281 -0.0078125 4.253906 0.0234375 4.761719 C 0.0507812 5.253906 0.171875 5.6875 0.574219 6.046875 C 0.972656 6.402344 1.453125 6.515625 2 6.539062 C 2.5625 6.570312 4.246094 6.570312 4.808594 6.539062 C 5.351562 6.519531 5.835938 6.40625 6.234375 6.046875 C 6.632812 5.6875 6.757812 5.253906 6.785156 4.761719 C 6.816406 4.253906 6.816406 2.742188 6.785156 2.234375 Z M 6.058594 5.304688 C 5.941406 5.574219 5.710938 5.78125 5.410156 5.886719 C 4.964844 6.046875 3.898438 6.011719 3.40625 6.011719 C 2.910156 6.011719 1.84375 6.046875 1.398438 5.886719 C 1.097656 5.78125 0.871094 5.574219 0.75 5.304688 C 0.574219 4.902344 0.613281 3.945312 0.613281 3.5 C 0.613281 3.050781 0.574219 2.09375 0.75 1.691406 C 0.871094 1.425781 1.097656 1.21875 1.398438 1.109375 C 1.84375 0.949219 2.910156 0.988281 3.40625 0.988281 C 3.898438 0.988281 4.964844 0.953125 5.410156 1.109375 C 5.707031 1.21875 5.9375 1.421875 6.058594 1.691406 C 6.234375 2.09375 6.195312 3.050781 6.195312 3.5 C 6.195312 3.945312 6.234375 4.902344 6.058594 5.304688 Z M 6.058594 5.304688 "/>
</g>
</svg>
