<?xml version="1.0" encoding="UTF-8"?>
<svg xmlns="http://www.w3.org/2000/svg" xmlns:xlink="http://www.w3.org/1999/xlink" width="8pt" height="8pt" viewBox="0 0 8 8" version="1.1">
<g>
<path fill="#a3bbc8" d="M 7.179688 2.371094 C 7.183594 2.441406 7.183594 2.515625 7.183594 2.585938 C 7.183594 4.75 5.53125 7.25 2.515625 7.25 C 1.585938 7.25 0.726562 6.980469 0 6.515625 C 0.132812 6.527344 0.257812 6.53125 0.398438 6.53125 C 1.164062 6.53125 1.867188 6.273438 2.429688 5.832031 C 1.710938 5.816406 1.109375 5.34375 0.898438 4.695312 C 1 4.710938 1.101562 4.71875 1.210938 4.71875 C 1.355469 4.71875 1.5 4.703125 1.640625 4.664062 C 0.890625 4.511719 0.324219 3.851562 0.324219 3.054688 L 0.324219 3.035156 C 0.542969 3.15625 0.796875 3.234375 1.066406 3.242188 C 0.625 2.949219 0.335938 2.445312 0.335938 1.878906 C 0.335938 1.574219 0.414062 1.296875 0.558594 1.050781 C 1.367188 2.046875 2.578125 2.695312 3.9375 2.765625 C 3.914062 2.644531 3.898438 2.515625 3.898438 2.390625 C 3.898438 1.488281 4.628906 0.75 5.539062 0.75 C 6.007812 0.75 6.4375 0.949219 6.734375 1.269531 C 7.109375 1.195312 7.460938 1.0625 7.777344 0.875 C 7.65625 1.253906 7.398438 1.574219 7.054688 1.777344 C 7.386719 1.742188 7.703125 1.648438 8 1.523438 C 7.777344 1.847656 7.5 2.136719 7.179688 2.371094 Z M 7.179688 2.371094 "/>
</g>
</svg>
