<svg xmlns="http://www.w3.org/2000/svg" width="74" height="60" viewBox="0 0 74 60">
  <defs>
    <style>
      .cls-1 {
        fill: #a3bbc8;
      }

      .cls-2 {
        fill: #243f4d;
        fill-rule: evenodd;
      }
    </style>
  </defs>
  <g id="Монтажная_область_1" data-name="Монтажная область 1">
    <circle class="cls-1" cx="56.5" cy="42.5" r="16.875"/>
    <path class="cls-2" d="M162.635,175h-57.27A3.365,3.365,0,0,0,102,178.357V219.5a3.364,3.364,0,0,0,3.365,3.357h21.691l-0.877,7h-3.633a1.072,1.072,0,1,0,0,2.144h22.908a1.072,1.072,0,1,0,0-2.144H141.82l-0.877-7h21.692A3.364,3.364,0,0,0,166,219.5V178.357A3.365,3.365,0,0,0,162.635,175Zm-34.291,54.857,0.877-7h9.558l0.877,7H128.344ZM163.852,219.5a1.217,1.217,0,0,1-1.217,1.215h-57.27a1.217,1.217,0,0,1-1.217-1.215V178.357a1.217,1.217,0,0,1,1.217-1.215h57.27a1.217,1.217,0,0,1,1.217,1.215V219.5h0Zm-11.525-39.928H107.655a1.072,1.072,0,0,0-1.073,1.072v35.428a1.071,1.071,0,0,0,1.073,1.071h3.437a1.071,1.071,0,1,0,0-2.142h-2.363V181.714h43.6A1.072,1.072,0,1,0,152.327,179.571Zm8.017,0h-3.436a1.072,1.072,0,1,0,0,2.143h2.363V215h-43.6a1.071,1.071,0,1,0,0,2.142h44.671a1.072,1.072,0,0,0,1.074-1.071V180.643A1.073,1.073,0,0,0,160.344,179.571Zm-6.872,5.714a3.355,3.355,0,0,0-2.97,4.934l-8.6,9.09a3.357,3.357,0,0,0-3.722.614l-7.348-3.882a3.328,3.328,0,0,0,.045-0.541,3.365,3.365,0,1,0-6.4,1.446l-8.406,8.141a3.354,3.354,0,1,0,1.5,1.537l8.406-8.141a3.357,3.357,0,0,0,3.852-.549l7.348,3.881a3.457,3.457,0,0,0-.044.542,3.365,3.365,0,0,0,6.729,0,3.328,3.328,0,0,0-.395-1.577l8.6-9.09A3.358,3.358,0,1,0,153.472,185.285Zm-38.944,24a1.214,1.214,0,1,1,1.217-1.214A1.217,1.217,0,0,1,114.528,209.285Zm12.981-12.571a1.214,1.214,0,1,1,1.217-1.214A1.217,1.217,0,0,1,127.509,196.714Zm12.982,6.857a1.215,1.215,0,1,1,1.217-1.214A1.217,1.217,0,0,1,140.491,203.571Zm12.981-13.714a1.215,1.215,0,1,1,1.217-1.214A1.217,1.217,0,0,1,153.472,189.857Zm0,4.571A1.073,1.073,0,0,0,152.4,195.5v16a1.074,1.074,0,0,0,2.148,0v-16A1.073,1.073,0,0,0,153.472,194.428Zm-25.963,6.857a1.073,1.073,0,0,0-1.074,1.072V211.5a1.074,1.074,0,0,0,2.148,0v-9.143A1.073,1.073,0,0,0,127.509,201.285Zm12.982,6.857a1.073,1.073,0,0,0-1.074,1.072V211.5a1.074,1.074,0,0,0,2.147,0v-2.286A1.072,1.072,0,0,0,140.491,208.142Z" transform="translate(-102 -175)"/>
  </g>
</svg>
