<svg xmlns="http://www.w3.org/2000/svg" width="73" height="52" viewBox="0 0 73 52">
  <defs>
    <style>
      .cls-1 {
        fill: #a3bbc8;
      }

      .cls-2 {
        fill: #243f4d;
        fill-rule: evenodd;
      }
    </style>
  </defs>
  <g id="Монтажная_область_1" data-name="Монтажная область 1">
    <circle class="cls-1" cx="55.5" cy="34.5" r="16.875"/>
    <path class="cls-2" d="M93.52,199.957l-1.657-6.55a0.993,0.993,0,0,0,.793-0.968v-1.056a4.189,4.189,0,0,0-4.209-4.159H80.9v-2.178A2.061,2.061,0,0,0,78.827,183H40.347a2.061,2.061,0,0,0-2.071,2.046V203a1,1,0,0,0,2,0V185.046a0.066,0.066,0,0,1,.067-0.066h38.48a0.066,0.066,0,0,1,.067.066V203a1,1,0,0,0,2,0v-1.122H92.724a3.275,3.275,0,0,1,3.114,2.244H92.722a1,1,0,0,0-1,.99v2.112a3.125,3.125,0,0,0,3.14,3.1H96v4.356h-2.62a6.37,6.37,0,0,0-12,0H80.9v-7.459a1,1,0,0,0-2,0v7.459H58.1a6.37,6.37,0,0,0-12,0h-5.76a0.067,0.067,0,0,1-.067-0.066v-2.179h4.343a0.99,0.99,0,1,0,0-1.98H35a0.99,0.99,0,1,0,0,1.98h3.273v2.179a2.061,2.061,0,0,0,2.071,2.046H45.76c0,0.022,0,.044,0,0.066a6.347,6.347,0,0,0,12.693,0c0-.022,0-0.044,0-0.066H81.033c0,0.022,0,.044,0,0.066a6.347,6.347,0,0,0,12.693,0c0-.022,0-0.044,0-0.066H97a1,1,0,0,0,1-.99V205.112A5.242,5.242,0,0,0,93.52,199.957ZM80.9,189.2h7.549a2.195,2.195,0,0,1,2.2,2.179v0.066H80.9V189.2Zm0,10.694v-6.469h8.9l1.637,6.469H80.9ZM52.1,221.02a4.291,4.291,0,1,1,4.342-4.291A4.322,4.322,0,0,1,52.1,221.02Zm35.273,0a4.291,4.291,0,1,1,4.342-4.291A4.322,4.322,0,0,1,87.378,221.02ZM96,208.346H94.86a1.13,1.13,0,0,1-1.136-1.122V206.1H96v2.244h0ZM52.1,214.683a2.047,2.047,0,1,0,2.071,2.046A2.061,2.061,0,0,0,52.1,214.683Zm35.273,0a2.047,2.047,0,1,0,2.071,2.046A2.061,2.061,0,0,0,87.378,214.683ZM75.62,210.459H60.655a0.99,0.99,0,1,0,0,1.98H75.62A0.99,0.99,0,1,0,75.62,210.459Zm-25.653-4.225H37.14a0.99,0.99,0,1,0,0,1.98H49.967A0.99,0.99,0,1,0,49.967,206.234ZM68.846,192.8a1.01,1.01,0,0,0-1.417,0l-8.911,8.8-4.636-4.58a1.012,1.012,0,0,0-1.417,0,0.981,0.981,0,0,0,0,1.4l5.344,5.281a1.01,1.01,0,0,0,1.417,0l9.62-9.5A0.982,0.982,0,0,0,68.846,192.8Z" transform="translate(-34 -183)"/>
  </g>
</svg>
