<svg xmlns="http://www.w3.org/2000/svg" width="79" height="64" viewBox="0 0 79 64">
  <defs>
    <style>
      .cls-1 {
        fill: #a3bbc8;
      }

      .cls-2 {
        fill: #243f4d;
        fill-rule: evenodd;
      }
    </style>
  </defs>
  <g id="Монтажная_область_1" data-name="Монтажная область 1">
    <circle class="cls-1" cx="61.5" cy="46.5" r="16.875"/>
    <path class="cls-2" d="M399.057,224.461a4.355,4.355,0,0,0-2.212-3.229l-11.588-6.45a4.608,4.608,0,0,0-5.457.741l-4.069,4.027a2.415,2.415,0,0,1-3.105.239A75.436,75.436,0,0,1,357.381,204.7a2.354,2.354,0,0,1,.241-3.073l4.07-4.026a4.489,4.489,0,0,0,.749-5.4l-6.518-11.467a4.4,4.4,0,0,0-3.263-2.188,4.7,4.7,0,0,0-3.962,1.339l-4.292,4.247c-3.032,3-3.191,8.372-.449,15.125,2.624,6.461,7.616,13.529,14.057,19.9s13.584,11.314,20.112,13.91A23.937,23.937,0,0,0,386.778,235a9.1,9.1,0,0,0,6.633-2.371l4.292-4.247A4.594,4.594,0,0,0,399.057,224.461Zm-2.889,2.4-0.75.742-9.879-5.332a1.091,1.091,0,0,0-1.472.428,1.068,1.068,0,0,0,.433,1.457l9.319,5.03-1.943,1.922c-2.344,2.32-7.061,2.309-12.941-.03-6.263-2.49-13.148-7.262-19.387-13.435s-11.06-12.987-13.577-19.185c-2.363-5.819-2.374-10.487-.03-12.807l1.942-1.922,1.039,1.885a1.092,1.092,0,0,0,1.472.429,1.069,1.069,0,0,0,.433-1.457l-1.344-2.44,0.75-.741a2.547,2.547,0,0,1,1.8-.753,2.372,2.372,0,0,1,.336.023,2.241,2.241,0,0,1,1.668,1.113l6.518,11.467a2.352,2.352,0,0,1-.393,2.828L358.221,198l-5.082-9.219a1.09,1.09,0,0,0-1.472-.429,1.068,1.068,0,0,0-.433,1.457l5.387,9.773-0.533.528a4.5,4.5,0,0,0-.449,5.872,77.675,77.675,0,0,0,15.693,15.529,4.616,4.616,0,0,0,5.934-.444l0.533-.528,2.464,1.33a1.092,1.092,0,0,0,1.472-.429,1.067,1.067,0,0,0-.433-1.456l-1.9-1.028,1.937-1.916a2.414,2.414,0,0,1,2.858-.389l11.588,6.45a2.221,2.221,0,0,1,1.125,1.65A2.475,2.475,0,0,1,396.168,226.863Zm-2.143-28.374H392.8v-9.235a1.085,1.085,0,0,0-2.17,0v9.235h-5.664l2.021-9a1.074,1.074,0,0,0-.824-1.281,1.086,1.086,0,0,0-1.3.815l-2.315,10.309a1.067,1.067,0,0,0,.213.905,1.091,1.091,0,0,0,.847.4h7.017v3.508a1.085,1.085,0,0,0,2.17,0v-3.508h1.23A1.074,1.074,0,1,0,394.025,198.489Zm-13.889,4.582h-7.987c0.472-1.231,1.808-2.013,3.735-3.053,2.378-1.284,5.337-2.882,5.337-6.509a5.729,5.729,0,0,0-11.43,0,1.085,1.085,0,0,0,2.17,0,3.565,3.565,0,0,1,7.089,0c0,2.194-1.589,3.21-4.206,4.624-2.369,1.279-5.054,2.729-5.054,6.012a1.08,1.08,0,0,0,1.086,1.073h9.259A1.074,1.074,0,1,0,380.136,203.071Zm22.936,12.62-2.113.418A26.053,26.053,0,0,0,409,197.272a26.607,26.607,0,0,0-48.271-15.109,1.066,1.066,0,0,0,.262,1.5,1.093,1.093,0,0,0,1.512-.26,24.433,24.433,0,0,1,44.327,13.873,23.926,23.926,0,0,1-7.594,17.494l0.483-2.393a1.074,1.074,0,0,0-.851-1.264,1.085,1.085,0,0,0-1.277.843l-1.157,5.727a1.068,1.068,0,0,0,.3.97,1.1,1.1,0,0,0,.981.293L403.5,217.8a1.074,1.074,0,0,0,.851-1.264A1.085,1.085,0,0,0,403.072,215.691Zm-20.622-40.11a1.08,1.08,0,0,0-1.085,1.074v2.291a1.086,1.086,0,0,0,2.171,0v-2.291A1.081,1.081,0,0,0,382.45,175.581ZM403.285,196.2H400.97a1.074,1.074,0,1,0,0,2.148h2.315A1.074,1.074,0,1,0,403.285,196.2Zm-36.33-9.019-2-1.145a1.09,1.09,0,0,0-1.482.393,1.066,1.066,0,0,0,.4,1.466l2,1.146a1.093,1.093,0,0,0,1.483-.393A1.068,1.068,0,0,0,366.955,187.179Zm34.081,19.472-2-1.146a1.092,1.092,0,0,0-1.482.393,1.068,1.068,0,0,0,.4,1.467l2,1.145a1.091,1.091,0,0,0,1.482-.393A1.066,1.066,0,0,0,401.036,206.651Zm-7.626-28.164a1.092,1.092,0,0,0-1.482.393l-1.157,1.984a1.067,1.067,0,0,0,.4,1.467,1.091,1.091,0,0,0,1.482-.393l1.158-1.984A1.069,1.069,0,0,0,393.41,178.487Zm-19.677,33.726a1.092,1.092,0,0,0-1.482.393l-1.158,1.984a1.069,1.069,0,0,0,.4,1.467,1.091,1.091,0,0,0,1.482-.393l1.157-1.984A1.068,1.068,0,0,0,373.733,212.213Zm27.7-25.786a1.09,1.09,0,0,0-1.482-.393l-2,1.145a1.068,1.068,0,0,0-.4,1.467,1.093,1.093,0,0,0,1.483.393l2-1.145A1.068,1.068,0,0,0,401.433,186.427ZM367.352,205.9a1.093,1.093,0,0,0-1.483-.393l-2,1.146a1.067,1.067,0,0,0-.4,1.467,1.091,1.091,0,0,0,1.482.393l2-1.146A1.068,1.068,0,0,0,367.352,205.9Zm6.778-25.034-1.157-1.984a1.091,1.091,0,0,0-1.482-.392,1.066,1.066,0,0,0-.4,1.466l1.157,1.984a1.091,1.091,0,0,0,1.482.393A1.067,1.067,0,0,0,374.13,180.864Zm19.677,33.726-1.157-1.984a1.092,1.092,0,0,0-1.482-.393,1.068,1.068,0,0,0-.4,1.467l1.157,1.984a1.091,1.091,0,0,0,1.482.393A1.068,1.068,0,0,0,393.807,214.59Z" transform="translate(-342 -171)"/>
  </g>
</svg>
