<svg xmlns="http://www.w3.org/2000/svg" width="61" height="64" viewBox="0 0 61 64">
  <defs>
    <style>
      .cls-1 {
        fill: #a3bbc8;
      }

      .cls-2 {
        fill: #243f4d;
        fill-rule: evenodd;
      }
    </style>
  </defs>
  <g id="Монтажная_область_1" data-name="Монтажная область 1">
    <circle class="cls-1" cx="43.5" cy="46.5" r="16.875"/>
    <path class="cls-2" d="M309.149,179.012a17.876,17.876,0,0,0-20.889,3.382,18.353,18.353,0,0,0-1.5,24.043,0.992,0.992,0,0,0,1.4.177,1.015,1.015,0,0,0,.175-1.415,16.321,16.321,0,0,1,1.331-21.38,15.9,15.9,0,0,1,18.577-3.008,0.993,0.993,0,0,0,1.341-.445A1.011,1.011,0,0,0,309.149,179.012Zm7.973,8.05a0.993,0.993,0,0,0-1.341-.445,1.011,1.011,0,0,0-.441,1.353,16.277,16.277,0,0,1-2.982,18.75,15.943,15.943,0,0,1-21.179,1.344,0.992,0.992,0,0,0-1.4.176,1.015,1.015,0,0,0,.174,1.415,17.928,17.928,0,0,0,23.818-1.51A18.3,18.3,0,0,0,317.122,187.062Zm-2.579-3.839c-0.248-.283-0.508-0.561-0.773-0.829s-0.541-.53-0.821-0.78a0.991,0.991,0,0,0-1.409.088,1.014,1.014,0,0,0,.086,1.423c0.25,0.222.5,0.456,0.732,0.694s0.468,0.487.688,0.739a0.994,0.994,0,0,0,1.41.088A1.015,1.015,0,0,0,314.543,183.223Zm10.039,13.854a3.45,3.45,0,0,0,0-3.575l-1.313-2.175a1.426,1.426,0,0,1-.188-0.958l0.391-2.511a3.432,3.432,0,0,0-1.359-3.31l-2.036-1.5a1.419,1.419,0,0,1-.538-0.812l-0.593-2.474a3.4,3.4,0,0,0-2.506-2.529l-2.45-.6a1.405,1.405,0,0,1-.8-0.544L311.7,174.04a3.372,3.372,0,0,0-3.279-1.372l-2.488.395a1.393,1.393,0,0,1-.949-0.19l-2.155-1.326a3.36,3.36,0,0,0-3.541,0l-2.154,1.326a1.4,1.4,0,0,1-.949.19l-2.488-.395a3.372,3.372,0,0,0-3.279,1.371l-1.48,2.056a1.408,1.408,0,0,1-.806.543l-2.45.6a3.4,3.4,0,0,0-2.5,2.529l-0.593,2.474a1.422,1.422,0,0,1-.539.812l-2.036,1.5a3.432,3.432,0,0,0-1.359,3.31l0.391,2.512a1.426,1.426,0,0,1-.188.958l-1.314,2.175a3.448,3.448,0,0,0,0,3.575l1.314,2.174a1.429,1.429,0,0,1,.188.958l-0.392,2.511a3.437,3.437,0,0,0,1.359,3.311l2.036,1.494a1.419,1.419,0,0,1,.539.813l0.593,2.473a3.4,3.4,0,0,0,2.505,2.53l1.023,0.25-6.924,15.591a1.016,1.016,0,0,0,.107,1.009,0.994,0.994,0,0,0,.923.4l5.571-.672,3.21,4.645a0.994,0.994,0,0,0,.818.432c0.031,0,.063,0,0.094,0a1,1,0,0,0,.818-0.591L298.4,218.48l0.9,0.552a3.367,3.367,0,0,0,3.541,0l0.929-.572,7.08,15.944a1,1,0,0,0,.818.591c0.031,0,.062,0,0.093,0a1,1,0,0,0,.819-0.432l3.209-4.645,5.572,0.672a0.993,0.993,0,0,0,.922-0.4,1.013,1.013,0,0,0,.107-1.009l-6.927-15.6,0.984-.241a3.4,3.4,0,0,0,2.506-2.529l0.593-2.473a1.415,1.415,0,0,1,.539-0.813l2.036-1.5a3.433,3.433,0,0,0,1.359-3.309l-0.391-2.513a1.429,1.429,0,0,1,.188-0.958Zm-34.359,34.878-2.544-3.681a0.994,0.994,0,0,0-.937-0.425l-4.415.533,6.308-14.206a1.405,1.405,0,0,1,.3.307l1.481,2.055a3.423,3.423,0,0,0,.471.53l-3.32,7.478a1.01,1.01,0,0,0,.5,1.331,0.984,0.984,0,0,0,.407.089,1,1,0,0,0,.912-0.6l3.309-7.45a3.37,3.37,0,0,0,1-.01l2.488-.4a1.368,1.368,0,0,1,.447,0Zm29.615-3.573-4.415-.533a0.994,0.994,0,0,0-.938.425l-2.543,3.681-6.414-14.443a1.4,1.4,0,0,1,.408,0l2.487,0.4a3.4,3.4,0,0,0,1.037,0l3.311,7.456a1,1,0,0,0,.912.6,0.987,0.987,0,0,0,.408-0.088,1.012,1.012,0,0,0,.5-1.332l-3.333-7.506a3.422,3.422,0,0,0,.442-0.5l1.481-2.055a1.407,1.407,0,0,1,.336-0.331Zm3.038-32.355-1.313,2.175a3.466,3.466,0,0,0-.456,2.321l0.391,2.512a1.415,1.415,0,0,1-.561,1.366L318.9,205.9a3.441,3.441,0,0,0-1.305,1.969L317,210.338a1.4,1.4,0,0,1-1.034,1.044l-2.45.6a3.4,3.4,0,0,0-1.951,1.317l-1.481,2.055a1.388,1.388,0,0,1-1.353.566l-2.488-.4a3.38,3.38,0,0,0-2.3.46l-2.154,1.326a1.386,1.386,0,0,1-1.462,0l-2.155-1.326a3.367,3.367,0,0,0-2.3-.46l-2.488.4a1.393,1.393,0,0,1-1.354-.566l-1.481-2.056a3.411,3.411,0,0,0-1.95-1.317l-2.45-.6a1.4,1.4,0,0,1-1.035-1.044l-0.593-2.473a3.436,3.436,0,0,0-1.305-1.969l-2.035-1.5a1.416,1.416,0,0,1-.561-1.366l0.391-2.512a3.466,3.466,0,0,0-.455-2.321l-1.314-2.174a1.423,1.423,0,0,1,0-1.476l1.314-2.175a3.463,3.463,0,0,0,.456-2.32l-0.392-2.512a1.42,1.42,0,0,1,.561-1.367l2.037-1.5a3.44,3.44,0,0,0,1.3-1.969l0.593-2.473a1.406,1.406,0,0,1,1.035-1.044l2.45-.6a3.4,3.4,0,0,0,1.95-1.318l1.481-2.055a1.391,1.391,0,0,1,1.354-.566l2.487,0.4a3.382,3.382,0,0,0,2.3-.46l2.154-1.326a1.384,1.384,0,0,1,1.461,0l2.155,1.326a3.374,3.374,0,0,0,2.3.46l2.489-.4a1.392,1.392,0,0,1,1.353.566l1.481,2.056a3.4,3.4,0,0,0,1.951,1.317l2.45,0.6A1.4,1.4,0,0,1,317,180.241l0.593,2.473a3.433,3.433,0,0,0,1.305,1.969l2.036,1.5a1.419,1.419,0,0,1,.561,1.367l-0.392,2.511a3.467,3.467,0,0,0,.456,2.321l1.313,2.174A1.423,1.423,0,0,1,322.876,196.027Zm-10.131-3.874a1.792,1.792,0,0,0-1.5-1.246l-6.008-.719-2.534-5.546a1.8,1.8,0,0,0-3.277,0l-2.534,5.546-6.008.719a1.792,1.792,0,0,0-1.5,1.246,1.815,1.815,0,0,0,.491,1.9l4.441,4.146-1.179,5.991a1.812,1.812,0,0,0,.71,1.828,1.773,1.773,0,0,0,1.941.116l5.28-2.983,5.279,2.983a1.771,1.771,0,0,0,1.941-.116,1.812,1.812,0,0,0,.71-1.828l-1.179-5.991,4.441-4.146A1.815,1.815,0,0,0,312.745,192.153Zm-6.7,4.949a1.018,1.018,0,0,0-.3.937l1.207,6.13-5.4-3.053a0.992,0.992,0,0,0-.975,0l-5.4,3.053,1.207-6.13a1.015,1.015,0,0,0-.3-0.937l-4.545-4.243,6.148-.736a1,1,0,0,0,.79-0.578l2.593-5.675,2.593,5.675a1,1,0,0,0,.789.578l6.148,0.736Z" transform="translate(-277 -171)"/>
  </g>
</svg>
