<svg xmlns="http://www.w3.org/2000/svg" width="52" height="54" viewBox="0 0 52 54">
  <defs>
    <style>
      .cls-1, .cls-2 {
        fill: #a3bbc8;
      }

      .cls-1 {
        opacity: 0.34;
      }

      .cls-2 {
        fill-rule: evenodd;
      }
    </style>
  </defs>
  <g id="Монтажная_область_1" data-name="Монтажная область 1">
    <ellipse class="cls-1" cx="41.985" cy="43.406" rx="9.797" ry="9.813"/>
    <path class="cls-2" d="M268.312,290.669a0.938,0.938,0,1,0-1.592.993A22.684,22.684,0,0,1,233.86,321.8a0.937,0.937,0,0,0-1.125,1.5A24.56,24.56,0,0,0,268.312,290.669Zm-23.03,21.939h-7.55l4.743-4.743a12.7,12.7,0,0,0,3.744-9.039,5.844,5.844,0,0,0-11.688,0,0.938,0.938,0,1,0,1.875,0,3.969,3.969,0,0,1,7.938,0,10.839,10.839,0,0,1-3.195,7.714l-6.344,6.343a0.938,0.938,0,0,0,.663,1.6h9.813A0.938,0.938,0,0,0,245.282,312.608Zm15.039-6.438h-2.6v-1.516a0.938,0.938,0,1,0-1.875,0v1.516h-5.286l5.286-8.852v4.21a0.938,0.938,0,0,0,1.875,0v-7.609s0,0,0-.008a0.937,0.937,0,0,0-1.742-.472L248.1,306.627a0.938,0.938,0,0,0,.805,1.419h6.938v5.5a0.938,0.938,0,1,0,1.875,0v-5.5h2.6A0.938,0.938,0,0,0,260.321,306.17Zm5.33-22.632a0.938,0.938,0,0,0-1.875.045l0.042,1.749a24.556,24.556,0,0,0-33.549,35.849,0.937,0.937,0,1,0,1.312-1.338,22.682,22.682,0,0,1,15.882-38.874,22.758,22.758,0,0,1,15.107,5.768l-1.843.043a0.937,0.937,0,0,0,.022,1.874h0.023l4.06-.1a0.937,0.937,0,0,0,.915-0.959Z" transform="translate(-222 -279)"/>
  </g>
</svg>
