<svg xmlns="http://www.w3.org/2000/svg" width="54" height="53" viewBox="0 0 54 53">
  <defs>
    <style>
      .cls-1, .cls-2 {
        fill: #a3bbc8;
      }

      .cls-1 {
        fill-rule: evenodd;
      }

      .cls-2 {
        opacity: 0.34;
      }
    </style>
  </defs>
  <g id="Монтажная_область_1" data-name="Монтажная область 1">
    <path id="credit-card" class="cls-1" d="M340.425,310.315a0.837,0.837,0,0,0-.836.836v8.266a2.167,2.167,0,0,1-2.162,2.165H298.092a2.167,2.167,0,0,1-2.163-2.165V307.5H323.22a0.837,0.837,0,0,0,0-1.673H295.929v-5.47H305.8a0.837,0.837,0,0,0,0-1.673h-9.869V295.8a2.168,2.168,0,0,1,2.163-2.166H323.22a0.837,0.837,0,0,0,0-1.673H298.092a3.841,3.841,0,0,0-3.834,3.839v23.62a3.84,3.84,0,0,0,3.834,3.837h39.335a3.84,3.84,0,0,0,3.834-3.837v-8.266A0.836,0.836,0,0,0,340.425,310.315Zm-17.2-11.634H309a0.837,0.837,0,0,0,0,1.674H323.22A0.837,0.837,0,0,0,323.22,298.681Zm-9.238,11.555H299.711a0.837,0.837,0,0,0,0,1.674h14.271A0.837,0.837,0,0,0,313.982,310.236Zm-6.086,3.992h-8.185a0.837,0.837,0,0,0,0,1.673H307.9A0.837,0.837,0,0,0,307.9,314.228Zm34.638-13.607a0.836,0.836,0,0,0,.836-0.837v-4.773a3.048,3.048,0,0,0-2.394-2.974v-6.016a6.6,6.6,0,1,0-13.19,0v6.016a3.05,3.05,0,0,0-2.393,2.975v10.747a3.045,3.045,0,0,0,3.041,3.044h11.894a3.046,3.046,0,0,0,3.042-3.044v-3.186a0.836,0.836,0,1,0-1.672,0v3.186a1.372,1.372,0,0,1-1.37,1.371H328.434a1.371,1.371,0,0,1-1.369-1.371V295.011a1.372,1.372,0,0,1,1.369-1.371h11.894a1.372,1.372,0,0,1,1.37,1.371v4.773A0.837,0.837,0,0,0,342.534,300.621Zm-3.229-8.654h-9.847v-5.946a4.923,4.923,0,1,1,9.846,0v5.946h0Zm-4.923,4.322a3.095,3.095,0,0,0-.836,6.074V304.4a0.836,0.836,0,1,0,1.671,0v-2.041A3.095,3.095,0,0,0,334.382,296.289Zm0,4.517a1.422,1.422,0,1,1,1.42-1.422A1.422,1.422,0,0,1,334.382,300.806Z" transform="translate(-294 -279)"/>
    <circle class="cls-2" cx="44" cy="42.859" r="9.812"/>
  </g>
</svg>
