<svg xmlns="http://www.w3.org/2000/svg" width="55" height="37" viewBox="0 0 55 37">
  <defs>
    <style>
      .cls-1, .cls-2 {
        fill: #a3bbc8;
      }

      .cls-1 {
        fill-rule: evenodd;
      }

      .cls-2 {
        opacity: 0.34;
      }
    </style>
  </defs>
  <g id="Монтажная_область_1" data-name="Монтажная область 1">
    <path id="delivery-truck" class="cls-1" d="M76.816,293.334H70.69a0.786,0.786,0,0,0,0,1.572h6.126A0.786,0.786,0,0,0,76.816,293.334ZM77.34,304.34h-5.6a0.786,0.786,0,0,0,0,1.572h5.6A0.786,0.786,0,0,0,77.34,304.34Zm-2.094-4.717H68.6a0.786,0.786,0,0,0,0,1.572h6.649A0.786,0.786,0,0,0,75.246,299.623Zm0,11.006H74.6a0.787,0.787,0,0,0,0,1.573h0.644A0.787,0.787,0,0,0,75.246,310.629Zm-3.262,0H68.6a0.787,0.787,0,0,0,0,1.573h3.387A0.787,0.787,0,0,0,71.983,310.629Zm36.86-19.86h-6.657v-1.415a0.786,0.786,0,0,0-.786-0.786H89.225a0.786,0.786,0,0,0,0,1.572h11.39v17.22a0.786,0.786,0,1,0,1.571,0V292.342h6.657a6.519,6.519,0,0,1,6.509,6.513v13.3h-2a4.974,4.974,0,0,0-9.824,0h-1.345v-1.125a0.786,0.786,0,1,0-1.571,0v1.125H92.279a4.973,4.973,0,0,0-9.824,0H80.822V290.14h5.261a0.786,0.786,0,0,0,0-1.572H80.037a0.786,0.786,0,0,0-.785.786V312.94a0.787,0.787,0,0,0,.785.787h2.419a4.974,4.974,0,0,0,9.824,0h11.252a4.974,4.974,0,0,0,9.824,0h2.782a0.786,0.786,0,0,0,.785-0.787V298.855A8.092,8.092,0,0,0,108.843,290.769ZM87.368,316.347a3.407,3.407,0,1,1,3.4-3.407A3.409,3.409,0,0,1,87.368,316.347Zm21.075,0a3.409,3.409,0,0,1-3.4-3.406h0A3.4,3.4,0,1,1,108.443,316.347Zm0.4-22.433h-4.3a0.785,0.785,0,0,0-.785.786v7.39a0.785,0.785,0,0,0,.785.787H113a0.786,0.786,0,0,0,.786-0.787v-3.235A4.945,4.945,0,0,0,108.843,293.914Zm3.367,7.39h-6.882v-5.817h3.515a3.371,3.371,0,0,1,3.367,3.368V301.3Zm-24.842,9.61a2.027,2.027,0,1,0,2.025,2.026A2.028,2.028,0,0,0,87.368,310.914Zm0,2.481a0.455,0.455,0,1,1,.454-0.455A0.455,0.455,0,0,1,87.368,313.4Zm21.075-2.481a2.027,2.027,0,1,0,2.025,2.026A2.028,2.028,0,0,0,108.443,310.914Zm0,2.481a0.455,0.455,0,1,1,.454-0.455A0.455,0.455,0,0,1,108.443,313.4Zm4.552-8.37a0.786,0.786,0,0,0-.785.787V307.8a0.786,0.786,0,1,0,1.571,0v-1.992A0.786,0.786,0,0,0,113,305.025Z" transform="translate(-67 -288)"/>
    <circle class="cls-2" cx="44.75" cy="27.203" r="9.812"/>
  </g>
</svg>
