<svg xmlns="http://www.w3.org/2000/svg" width="55" height="37" viewBox="0 0 55 37">
  <defs>
    <style>
      .cls-1 {
        fill: #fcd7b6;
        opacity: 0.2;
      }

      .cls-2 {
        fill: #243f4d;
        opacity: 0.1;
      }

      .cls-3 {
        font-size: 18px;
        fill: #414141;
        font-weight: 700;
      }

      .cls-3, .cls-4 {
        font-family: "DM Sans";
      }

      .cls-4 {
        font-size: 16px;
        fill: #585858;
      }

      .cls-5, .cls-6, .cls-7 {
        fill: #a3bbc8;
      }

      .cls-5, .cls-7 {
        fill-rule: evenodd;
      }

      .cls-6, .cls-7 {
        opacity: 0.34;
      }
    </style>
  </defs>
  <g id="Монтажная_область_1" data-name="Монтажная область 1">
    <g id="Features">
      <g id="BG">
        <rect class="cls-1" x="-728" y="-56.469" width="1770" height="169.999"/>
        <rect class="cls-2" x="-161" y="-56.469" width="1" height="169.999"/>
        <rect class="cls-2" x="443" y="-56.469" width="1" height="169.999"/>
      </g>
      <g id="_100_Payment_secure." data-name="100% Payment secure.">
        <text id="_100_Payment_secure.-2" data-name="100% Payment secure." class="cls-3" x="683.834" y="2.958">100% Payment secure.</text>
        <text id="We_ensure_secure_payment_with_PEV." data-name="We ensure secure payment with PEV." class="cls-4" x="683.834" y="34.957">We ensure secure payment<tspan x="683.834" dy="30">with PEV.</tspan></text>
        <path id="credit-card" class="cls-5" d="M1812.43,1042.32a0.83,0.83,0,0,0-.84.83v8.27a2.164,2.164,0,0,1-2.16,2.16h-39.34a2.164,2.164,0,0,1-2.16-2.16V1039.5h27.29a0.84,0.84,0,1,0,0-1.68h-27.29v-5.47h9.87a0.828,0.828,0,0,0,.83-0.83,0.837,0.837,0,0,0-.83-0.84h-9.87v-2.88a2.166,2.166,0,0,1,2.16-2.17h25.13a0.835,0.835,0,1,0,0-1.67h-25.13a3.839,3.839,0,0,0-3.83,3.84v23.62a3.837,3.837,0,0,0,3.83,3.83h39.34a3.837,3.837,0,0,0,3.83-3.83v-8.27A0.828,0.828,0,0,0,1812.43,1042.32Zm-17.21-11.64H1781a0.837,0.837,0,0,0-.83.84,0.828,0.828,0,0,0,.83.83h14.22a0.837,0.837,0,0,0,.84-0.83A0.845,0.845,0,0,0,1795.22,1030.68Zm-9.24,11.56h-14.27a0.835,0.835,0,0,0,0,1.67h14.27A0.835,0.835,0,1,0,1785.98,1042.24Zm-6.08,3.99h-8.19a0.835,0.835,0,0,0,0,1.67h8.19A0.835,0.835,0,0,0,1779.9,1046.23Zm34.63-13.61a0.832,0.832,0,0,0,.84-0.84v-4.77a3.038,3.038,0,0,0-2.39-2.97v-6.02a6.6,6.6,0,1,0-13.19,0v6.02a3.053,3.053,0,0,0-2.4,2.97v10.75a3.045,3.045,0,0,0,3.04,3.04h11.9a3.039,3.039,0,0,0,3.04-3.04v-3.19a0.835,0.835,0,0,0-1.67,0v3.19a1.379,1.379,0,0,1-1.37,1.37h-11.9a1.379,1.379,0,0,1-1.37-1.37v-10.75a1.379,1.379,0,0,1,1.37-1.37h11.9a1.379,1.379,0,0,1,1.37,1.37v4.77A0.83,0.83,0,0,0,1814.53,1032.62Zm-3.23-8.65h-9.84v-5.95a4.92,4.92,0,1,1,9.84,0v5.95h0Zm-4.92,4.32a3.092,3.092,0,0,0-.83,6.07v2.04a0.83,0.83,0,0,0,.83.84,0.839,0.839,0,0,0,.84-0.84v-2.04A3.094,3.094,0,0,0,1806.38,1028.29Zm0,4.52a1.425,1.425,0,1,1,1.42-1.43A1.428,1.428,0,0,1,1806.38,1032.81Z" transform="translate(-1171 -1020)"/>
        <circle class="cls-6" cx="639" cy="33.86" r="9.81"/>
      </g>
      <g id="Delivery.">
        <text id="Delivery.-2" data-name="Delivery." class="cls-3" x="78.834" y="13.957">Delivery.</text>
        <text id="Free_shipping_on_all_US_order." data-name="Free shipping on all US order." class="cls-4" x="78.834" y="44.958">Free shipping on all US order.</text>
      </g>
      <g id="Support_24_7." data-name="Support 24/7.">
        <text id="Support_24_7.-2" data-name="Support 24/7." class="cls-3" x="-504.166" y="4.954">Support 24/7.</text>
        <text id="Contact_us_24_hours_a_day_7_days_a_week." data-name="Contact us 24 hours a day, 7 days a week." class="cls-4" x="-504.166" y="34.957">Contact us 24 hours a day,<tspan x="-504.166" dy="30">7 days a week.</tspan></text>
        <path class="cls-7" d="M631.984,1044.59a9.815,9.815,0,1,1-9.8,9.82A9.811,9.811,0,0,1,631.984,1044.59Z" transform="translate(-1171 -1020)"/>
        <path class="cls-5" d="M636.312,1022.67a0.937,0.937,0,0,0-1.592.99,22.684,22.684,0,0,1-32.86,30.14,0.938,0.938,0,0,0-1.125,1.5A24.559,24.559,0,0,0,636.312,1022.67Zm-23.03,21.94h-7.55l4.743-4.75a12.68,12.68,0,0,0,3.744-9.03,5.844,5.844,0,1,0-11.688,0,0.938,0.938,0,0,0,1.875,0,3.969,3.969,0,1,1,7.938,0,10.836,10.836,0,0,1-3.2,7.71l-6.344,6.34a0.949,0.949,0,0,0-.2,1.03,0.93,0.93,0,0,0,.866.57h9.813A0.935,0.935,0,1,0,613.282,1044.61Zm15.039-6.44h-2.6v-1.52a0.938,0.938,0,0,0-1.875,0v1.52h-5.286l5.286-8.85v4.21a0.938,0.938,0,1,0,1.875,0v-7.62a0.957,0.957,0,0,0-.456-0.8,0.94,0.94,0,0,0-1.286.33l-7.875,13.19a0.933,0.933,0,0,0-.011.94,0.951,0.951,0,0,0,.816.48h6.938v5.5a0.938,0.938,0,0,0,1.875,0v-5.5h2.6A0.94,0.94,0,0,0,628.321,1038.17Zm5.33-22.63a0.938,0.938,0,1,0-1.875.04l0.042,1.75a24.556,24.556,0,0,0-33.549,35.85,0.93,0.93,0,0,0,.656.27,0.92,0.92,0,0,0,.669-0.28,0.942,0.942,0,0,0-.013-1.33,22.679,22.679,0,0,1,15.882-38.87,22.745,22.745,0,0,1,15.107,5.77l-1.843.04a0.935,0.935,0,0,0,.022,1.87h0.023l4.06-.09a0.934,0.934,0,0,0,.915-0.96Z" transform="translate(-1171 -1020)"/>
      </g>
    </g>
    <path id="delivery-truck" class="cls-5" d="M1180.82,1025.33h-6.13a0.79,0.79,0,0,0,0,1.58h6.13A0.79,0.79,0,0,0,1180.82,1025.33Zm0.52,11.01h-5.6a0.785,0.785,0,1,0,0,1.57h5.6A0.785,0.785,0,1,0,1181.34,1036.34Zm-2.09-4.72h-6.65a0.79,0.79,0,1,0,0,1.58h6.65A0.79,0.79,0,0,0,1179.25,1031.62Zm0,11.01h-0.65a0.785,0.785,0,0,0,0,1.57h0.65A0.785,0.785,0,0,0,1179.25,1042.63Zm-3.27,0h-3.38a0.785,0.785,0,1,0,0,1.57h3.38A0.785,0.785,0,1,0,1175.98,1042.63Zm36.86-19.86h-6.65v-1.42a0.79,0.79,0,0,0-.79-0.78h-12.17a0.785,0.785,0,1,0,0,1.57h11.38v17.22a0.79,0.79,0,1,0,1.58,0v-15.02h6.65a6.519,6.519,0,0,1,6.51,6.52v13.29h-2a4.972,4.972,0,0,0-9.82,0h-1.34v-1.12a0.79,0.79,0,1,0-1.58,0v1.12h-8.33a4.972,4.972,0,0,0-9.82,0h-1.64v-22.01h5.26a0.785,0.785,0,1,0,0-1.57h-6.04a0.783,0.783,0,0,0-.79.78v23.59a0.792,0.792,0,0,0,.79.79h2.42a4.972,4.972,0,0,0,9.82,0h11.25a4.972,4.972,0,0,0,9.82,0h2.79a0.79,0.79,0,0,0,.78-0.79v-14.08A8.092,8.092,0,0,0,1212.84,1022.77Zm-21.47,25.58a3.41,3.41,0,1,1,3.4-3.41A3.414,3.414,0,0,1,1191.37,1048.35Zm21.07,0a3.412,3.412,0,0,1-3.4-3.41h0A3.405,3.405,0,1,1,1212.44,1048.35Zm0.4-22.44h-4.3a0.79,0.79,0,0,0-.78.79v7.39a0.79,0.79,0,0,0,.78.79H1217a0.79,0.79,0,0,0,.78-0.79v-3.23A4.946,4.946,0,0,0,1212.84,1025.91Zm3.37,7.39h-6.88v-5.81h3.51a3.372,3.372,0,0,1,3.37,3.37v2.44Zm-24.84,9.61a2.03,2.03,0,1,0,2.02,2.03A2.031,2.031,0,0,0,1191.37,1042.91Zm0,2.49a0.465,0.465,0,0,1-.46-0.46,0.457,0.457,0,0,1,.46-0.45,0.448,0.448,0,0,1,.45.45A0.457,0.457,0,0,1,1191.37,1045.4Zm21.07-2.49a2.03,2.03,0,1,0,2.03,2.03A2.029,2.029,0,0,0,1212.44,1042.91Zm0,2.49a0.457,0.457,0,0,1-.45-0.46,0.448,0.448,0,0,1,.45-0.45,0.457,0.457,0,0,1,.46.45A0.465,0.465,0,0,1,1212.44,1045.4Zm4.56-8.37a0.783,0.783,0,0,0-.79.78v1.99a0.785,0.785,0,1,0,1.57,0v-1.99A0.781,0.781,0,0,0,1217,1037.03Z" transform="translate(-1171 -1020)"/>
    <circle class="cls-6" cx="44.75" cy="27.205" r="9.81"/>
  </g>
</svg>
